<mxfile host="drawio-plugin" modified="2021-05-12T08:26:48.349Z" agent="5.0 (Windows NT 6.2; Win64; x64) AppleWebKit/537.36 (KHTML, like Gecko) Chrome/87.0.4280.141 Safari/537.36" etag="DgHOdKQD8q_jMEA1WpsD" version="14.6.6" type="embed"><diagram id="VJb8D4FvVCW9xLAJZHjJ" name="Page-1"><mxGraphModel dx="349" dy="670" grid="1" gridSize="10" guides="1" tooltips="1" connect="1" arrows="1" fold="1" page="1" pageScale="1" pageWidth="850" pageHeight="1100" background="#ffffff" math="0" shadow="0"><root><mxCell id="0"/><mxCell id="1" parent="0"/><mxCell id="21" value="Director" style="swimlane;fontStyle=3;align=center;verticalAlign=top;childLayout=stackLayout;horizontal=1;startSize=26;horizontalStack=0;resizeParent=1;resizeParentMax=0;resizeLast=0;collapsible=1;marginBottom=0;fontColor=#000000;strokeColor=#0000CC;strokeWidth=2;fillColor=#FFFFFF;" parent="1" vertex="1"><mxGeometry x="510" y="220" width="160" height="112" as="geometry"/></mxCell><mxCell id="25" value="- __builder" style="text;align=left;verticalAlign=top;spacingLeft=4;spacingRight=4;overflow=hidden;rotatable=0;points=[[0,0.5],[1,0.5]];portConstraint=eastwest;fillColor=#FFFFFF;strokeWidth=2;strokeColor=#000099;fontColor=#000000;" parent="21" vertex="1"><mxGeometry y="26" width="160" height="26" as="geometry"/></mxCell><mxCell id="22" value="" style="line;strokeWidth=2;align=left;verticalAlign=middle;spacingTop=-1;spacingLeft=3;spacingRight=3;rotatable=0;labelPosition=right;points=[];portConstraint=eastwest;fontColor=#000000;strokeColor=#0000CC;fillColor=#FFFFFF;" parent="21" vertex="1"><mxGeometry y="52" width="160" height="8" as="geometry"/></mxCell><mxCell id="26" value="+ build_first_obj(): " style="text;align=left;verticalAlign=top;spacingLeft=4;spacingRight=4;overflow=hidden;rotatable=0;points=[[0,0.5],[1,0.5]];portConstraint=eastwest;fillColor=#FFFFFF;strokeWidth=2;strokeColor=#000099;fontColor=#000000;" parent="21" vertex="1"><mxGeometry y="60" width="160" height="26" as="geometry"/></mxCell><mxCell id="27" value="+ build_second_obj(): " style="text;align=left;verticalAlign=top;spacingLeft=4;spacingRight=4;overflow=hidden;rotatable=0;points=[[0,0.5],[1,0.5]];portConstraint=eastwest;fillColor=#FFFFFF;strokeWidth=2;strokeColor=#000099;fontColor=#000000;" parent="21" vertex="1"><mxGeometry y="86" width="160" height="26" as="geometry"/></mxCell><mxCell id="28" value="1" style="endArrow=open;html=1;endSize=12;startArrow=diamondThin;startSize=14;startFill=0;edgeStyle=orthogonalEdgeStyle;align=left;verticalAlign=bottom;entryX=0.994;entryY=0.098;entryDx=0;entryDy=0;entryPerimeter=0;labelBackgroundColor=none;fontColor=#000099;fontSize=17;strokeWidth=2;strokeColor=#000099;" parent="1" target="6" edge="1"><mxGeometry x="0.0002" y="-65" relative="1" as="geometry"><mxPoint x="510" y="260" as="sourcePoint"/><mxPoint x="500" y="350" as="targetPoint"/><mxPoint as="offset"/></mxGeometry></mxCell><mxCell id="6" value="Builder" style="swimlane;fontStyle=3;align=center;verticalAlign=top;childLayout=stackLayout;horizontal=1;startSize=26;horizontalStack=0;resizeParent=1;resizeParentMax=0;resizeLast=0;collapsible=1;marginBottom=0;fontColor=#000000;strokeColor=#0000CC;strokeWidth=2;fillColor=#FFFFFF;" parent="1" vertex="1"><mxGeometry x="180" y="230" width="160" height="112" as="geometry"/></mxCell><mxCell id="7" value="" style="line;strokeWidth=2;align=left;verticalAlign=middle;spacingTop=-1;spacingLeft=3;spacingRight=3;rotatable=0;labelPosition=right;points=[];portConstraint=eastwest;fontColor=#000000;strokeColor=#0000CC;fillColor=#FFFFFF;" parent="6" vertex="1"><mxGeometry y="26" width="160" height="8" as="geometry"/></mxCell><mxCell id="8" value="+ add_first_element(): " style="text;align=left;verticalAlign=top;spacingLeft=4;spacingRight=4;overflow=hidden;rotatable=0;points=[[0,0.5],[1,0.5]];portConstraint=eastwest;fontColor=#000000;strokeColor=#0000CC;strokeWidth=2;fillColor=#FFFFFF;" parent="6" vertex="1"><mxGeometry y="34" width="160" height="26" as="geometry"/></mxCell><mxCell id="9" value="+ add_second_element(): " style="text;align=left;verticalAlign=top;spacingLeft=4;spacingRight=4;overflow=hidden;rotatable=0;points=[[0,0.5],[1,0.5]];portConstraint=eastwest;fillColor=#FFFFFF;strokeWidth=2;strokeColor=#000099;fontColor=#000000;" parent="6" vertex="1"><mxGeometry y="60" width="160" height="26" as="geometry"/></mxCell><mxCell id="10" value="+ add_third_element(): " style="text;align=left;verticalAlign=top;spacingLeft=4;spacingRight=4;overflow=hidden;rotatable=0;points=[[0,0.5],[1,0.5]];portConstraint=eastwest;fillColor=#FFFFFF;strokeWidth=2;strokeColor=#000099;fontColor=#000000;" parent="6" vertex="1"><mxGeometry y="86" width="160" height="26" as="geometry"/></mxCell><mxCell id="32" value="0..*" style="text;html=1;align=center;verticalAlign=middle;resizable=0;points=[];autosize=1;fontSize=17;fontColor=#000099;" parent="1" vertex="1"><mxGeometry x="340" y="210" width="40" height="30" as="geometry"/></mxCell><mxCell id="16" value="ConcreteBuilder1" style="swimlane;fontStyle=3;align=center;verticalAlign=top;childLayout=stackLayout;horizontal=1;startSize=26;horizontalStack=0;resizeParent=1;resizeParentMax=0;resizeLast=0;collapsible=1;marginBottom=0;fontColor=#000000;strokeColor=#0000CC;strokeWidth=2;fillColor=#FFFFFF;" parent="1" vertex="1"><mxGeometry x="80" y="430" width="160" height="112" as="geometry"/></mxCell><mxCell id="17" value="" style="line;strokeWidth=2;align=left;verticalAlign=middle;spacingTop=-1;spacingLeft=3;spacingRight=3;rotatable=0;labelPosition=right;points=[];portConstraint=eastwest;fontColor=#000000;strokeColor=#0000CC;fillColor=#FFFFFF;" parent="16" vertex="1"><mxGeometry y="26" width="160" height="8" as="geometry"/></mxCell><mxCell id="18" value="+ add_first_element(): " style="text;align=left;verticalAlign=top;spacingLeft=4;spacingRight=4;overflow=hidden;rotatable=0;points=[[0,0.5],[1,0.5]];portConstraint=eastwest;fontColor=#000000;strokeColor=#0000CC;strokeWidth=2;fillColor=#FFFFFF;" parent="16" vertex="1"><mxGeometry y="34" width="160" height="26" as="geometry"/></mxCell><mxCell id="19" value="+ add_second_element(): " style="text;align=left;verticalAlign=top;spacingLeft=4;spacingRight=4;overflow=hidden;rotatable=0;points=[[0,0.5],[1,0.5]];portConstraint=eastwest;fillColor=#FFFFFF;strokeWidth=2;strokeColor=#000099;fontColor=#000000;" parent="16" vertex="1"><mxGeometry y="60" width="160" height="26" as="geometry"/></mxCell><mxCell id="20" value="+ add_third_element(): " style="text;align=left;verticalAlign=top;spacingLeft=4;spacingRight=4;overflow=hidden;rotatable=0;points=[[0,0.5],[1,0.5]];portConstraint=eastwest;fillColor=#FFFFFF;strokeWidth=2;strokeColor=#000099;fontColor=#000000;" parent="16" vertex="1"><mxGeometry y="86" width="160" height="26" as="geometry"/></mxCell><mxCell id="35" value="return" style="html=1;verticalAlign=bottom;endArrow=open;dashed=1;endSize=9;exitX=0;exitY=0.5;exitDx=0;exitDy=0;entryX=-0.006;entryY=0.116;entryDx=0;entryDy=0;targetPerimeterSpacing=2;strokeWidth=2;strokeColor=#0000CC;fontColor=#000000;labelBackgroundColor=none;fontSize=14;entryPerimeter=0;" parent="16" source="18" target="16" edge="1"><mxGeometry x="-0.3274" y="22" relative="1" as="geometry"><mxPoint x="310" y="-163" as="sourcePoint"/><mxPoint x="520" y="-197" as="targetPoint"/><Array as="points"><mxPoint x="-40" y="50"/><mxPoint x="-40" y="10"/></Array><mxPoint x="2" y="10" as="offset"/></mxGeometry></mxCell><mxCell id="11" value="ConcreteBuilder2" style="swimlane;fontStyle=3;align=center;verticalAlign=top;childLayout=stackLayout;horizontal=1;startSize=26;horizontalStack=0;resizeParent=1;resizeParentMax=0;resizeLast=0;collapsible=1;marginBottom=0;fontColor=#000000;strokeColor=#0000CC;strokeWidth=2;fillColor=#FFFFFF;" parent="1" vertex="1"><mxGeometry x="350" y="430" width="160" height="112" as="geometry"/></mxCell><mxCell id="12" value="" style="line;strokeWidth=2;align=left;verticalAlign=middle;spacingTop=-1;spacingLeft=3;spacingRight=3;rotatable=0;labelPosition=right;points=[];portConstraint=eastwest;fontColor=#000000;strokeColor=#0000CC;fillColor=#FFFFFF;" parent="11" vertex="1"><mxGeometry y="26" width="160" height="8" as="geometry"/></mxCell><mxCell id="13" value="+ add_first_element(): " style="text;align=left;verticalAlign=top;spacingLeft=4;spacingRight=4;overflow=hidden;rotatable=0;points=[[0,0.5],[1,0.5]];portConstraint=eastwest;fontColor=#000000;strokeColor=#0000CC;strokeWidth=2;fillColor=#FFFFFF;" parent="11" vertex="1"><mxGeometry y="34" width="160" height="26" as="geometry"/></mxCell><mxCell id="14" value="+ add_second_element(): " style="text;align=left;verticalAlign=top;spacingLeft=4;spacingRight=4;overflow=hidden;rotatable=0;points=[[0,0.5],[1,0.5]];portConstraint=eastwest;fillColor=#FFFFFF;strokeWidth=2;strokeColor=#000099;fontColor=#000000;" parent="11" vertex="1"><mxGeometry y="60" width="160" height="26" as="geometry"/></mxCell><mxCell id="15" value="+ add_third_element(): " style="text;align=left;verticalAlign=top;spacingLeft=4;spacingRight=4;overflow=hidden;rotatable=0;points=[[0,0.5],[1,0.5]];portConstraint=eastwest;fillColor=#FFFFFF;strokeWidth=2;strokeColor=#000099;fontColor=#000000;" parent="11" vertex="1"><mxGeometry y="86" width="160" height="26" as="geometry"/></mxCell><mxCell id="49" value="return" style="html=1;verticalAlign=bottom;endArrow=open;dashed=1;endSize=8;labelBackgroundColor=none;strokeColor=#000099;strokeWidth=2;fontSize=17;fontColor=#000099;exitX=1;exitY=0.5;exitDx=0;exitDy=0;entryX=1.006;entryY=0.107;entryDx=0;entryDy=0;entryPerimeter=0;" parent="11" source="13" target="11" edge="1"><mxGeometry x="-0.254" y="-33" relative="1" as="geometry"><mxPoint x="-10" y="180" as="sourcePoint"/><mxPoint x="210" y="-20" as="targetPoint"/><Array as="points"><mxPoint x="210" y="47"/><mxPoint x="210" y="12"/></Array><mxPoint x="-3" y="13" as="offset"/></mxGeometry></mxCell><mxCell id="33" value="Extends" style="endArrow=block;endSize=16;endFill=0;html=1;labelBackgroundColor=none;strokeColor=#0000CC;strokeWidth=2;fontColor=#000000;entryX=0.5;entryY=1;entryDx=0;entryDy=0;exitX=0.5;exitY=0;exitDx=0;exitDy=0;fontSize=14;" parent="1" source="16" target="6" edge="1"><mxGeometry width="160" relative="1" as="geometry"><mxPoint x="100" y="390" as="sourcePoint"/><mxPoint x="310" y="280" as="targetPoint"/></mxGeometry></mxCell><mxCell id="34" value="Extends" style="endArrow=block;endSize=16;endFill=0;html=1;labelBackgroundColor=none;strokeColor=#0000CC;strokeWidth=2;fontColor=#000000;entryX=0.75;entryY=1;entryDx=0;entryDy=0;exitX=0.5;exitY=0;exitDx=0;exitDy=0;fontSize=14;" parent="1" source="11" target="6" edge="1"><mxGeometry width="160" relative="1" as="geometry"><mxPoint x="110" y="400" as="sourcePoint"/><mxPoint x="320" y="290" as="targetPoint"/></mxGeometry></mxCell><mxCell id="40" value="" style="endArrow=none;dashed=1;html=1;labelBackgroundColor=none;strokeColor=#000099;strokeWidth=2;fontSize=17;fontColor=#000099;" parent="1" edge="1"><mxGeometry width="50" height="50" relative="1" as="geometry"><mxPoint x="80" y="510" as="sourcePoint"/><mxPoint x="40" y="460" as="targetPoint"/><Array as="points"><mxPoint x="40" y="510"/></Array></mxGeometry></mxCell><mxCell id="41" value="" style="endArrow=none;dashed=1;html=1;labelBackgroundColor=none;strokeColor=#000099;strokeWidth=2;fontSize=17;fontColor=#000099;" parent="1" edge="1"><mxGeometry width="50" height="50" relative="1" as="geometry"><mxPoint x="80" y="530" as="sourcePoint"/><mxPoint x="40" y="510" as="targetPoint"/><Array as="points"><mxPoint x="40" y="530"/></Array></mxGeometry></mxCell><mxCell id="47" value="" style="endArrow=none;dashed=1;html=1;labelBackgroundColor=none;strokeColor=#000099;strokeWidth=2;fontSize=17;fontColor=#000099;entryX=1;entryY=0.5;entryDx=0;entryDy=0;" parent="1" target="15" edge="1"><mxGeometry width="50" height="50" relative="1" as="geometry"><mxPoint x="560" y="500" as="sourcePoint"/><mxPoint x="350" y="620" as="targetPoint"/><Array as="points"><mxPoint x="560" y="529"/></Array></mxGeometry></mxCell><mxCell id="48" value="" style="endArrow=none;dashed=1;html=1;labelBackgroundColor=none;strokeColor=#000099;strokeWidth=2;fontSize=17;fontColor=#000099;exitX=1;exitY=0.5;exitDx=0;exitDy=0;" parent="1" source="14" edge="1"><mxGeometry width="50" height="50" relative="1" as="geometry"><mxPoint x="210" y="650" as="sourcePoint"/><mxPoint x="560" y="460" as="targetPoint"/><Array as="points"><mxPoint x="560" y="503"/></Array></mxGeometry></mxCell></root></mxGraphModel></diagram></mxfile>